<svg width="50" height="18" viewBox="0 0 50 18" fill="none" xmlns="http://www.w3.org/2000/svg">
<path d="M11.5915 15.0621C13.5168 15.0621 15.0775 13.5014 15.0775 11.5761C15.0775 9.65083 13.5168 8.09009 11.5915 8.09009C9.66622 8.09009 8.10547 9.65083 8.10547 11.5761C8.10547 13.5014 9.66622 15.0621 11.5915 15.0621Z" fill="#333333"/>
<path d="M5.03869 13.199C5.93486 13.199 6.66136 12.4725 6.66136 11.5763C6.66136 10.6801 5.93486 9.95361 5.03869 9.95361C4.14251 9.95361 3.41602 10.6801 3.41602 11.5763C3.41602 12.4725 4.14251 13.199 5.03869 13.199Z" fill="#333333"/>
<path d="M11.5917 7.26712C12.8309 7.26712 13.8355 6.26254 13.8355 5.02333C13.8355 3.78412 12.8309 2.77954 11.5917 2.77954C10.3525 2.77954 9.3479 3.78412 9.3479 5.02333C9.3479 6.26254 10.3525 7.26712 11.5917 7.26712Z" fill="#333333"/>
<path d="M5.03874 7.88826C6.62098 7.88826 7.90364 6.6056 7.90364 5.02335C7.90364 3.44111 6.62098 2.15845 5.03874 2.15845C3.45649 2.15845 2.17383 3.44111 2.17383 5.02335C2.17383 6.6056 3.45649 7.88826 5.03874 7.88826Z" fill="#333333"/>
<path d="M24.1407 13.1799H25.9503L22.5989 4.05444H21.2863L17.9343 13.1802H19.7441L20.3842 11.4383H23.5006L24.1407 13.1802L20.8882 10.065L21.9426 7.19544L22.9963 10.065H20.8882L24.1407 13.1799ZM30.4363 6.94979L28.771 11.483L27.1064 6.94979H25.4061L27.6952 13.1799H29.8471L32.1359 6.94979H30.436H30.4363ZM32.8475 6.94979H34.5478V13.1799H32.8475V6.94979Z" fill="#333333"/>
<path d="M33.7034 6.24242C34.308 6.24242 34.7981 5.7523 34.7981 5.1477C34.7981 4.5431 34.308 4.05298 33.7034 4.05298C33.0988 4.05298 32.6086 4.5431 32.6086 5.1477C32.6086 5.7523 33.0988 6.24242 33.7034 6.24242Z" fill="#333333"/>
<path d="M40.5512 8.32257V6.94959H38.5144V5.23096H36.8152V6.94959H35.4705V8.32257H36.8152V11.003C36.8152 12.3856 37.5065 13.3084 39.2717 13.3084C39.9534 13.3084 40.5512 13.0581 40.5512 13.0581L40.3447 11.7129C40.3447 11.7129 40.0101 11.8129 39.5986 11.8129C39.0942 11.8129 38.5144 11.5956 38.5144 10.8984V8.32242H40.5512V8.32257ZM44.4503 11.7556C43.5023 11.7556 42.7341 11.0041 42.7341 10.0771C42.7341 9.15083 43.5023 8.39913 44.45 8.39913C45.3983 8.39913 46.1661 9.15099 46.1661 10.0772C46.1661 11.0043 45.3983 11.7558 44.4503 11.7558V11.7556ZM44.4503 6.79059C42.6074 6.79059 41.1129 8.25254 41.1129 10.0546C41.1129 11.8574 42.6074 13.3185 44.4501 13.3185C46.292 13.3185 47.7866 11.8574 47.7866 10.0546C47.7866 8.25254 46.292 6.79059 44.45 6.79059" fill="#333333"/>
</svg>
