<svg width="855" height="544" viewBox="0 0 855 544" fill="none" xmlns="http://www.w3.org/2000/svg">
<g filter="url(#filter0_f)">
<ellipse cx="427.819" cy="495.77" rx="382.826" ry="4.23012" fill="black"/>
</g>
<path d="M84.9104 28C84.9104 13.0883 96.9987 1 111.91 1H746.266C761.177 1 773.266 13.0883 773.266 28V464.697C773.266 466.354 771.923 467.697 770.266 467.697H87.9104C86.2535 467.697 84.9104 466.354 84.9104 464.697V28Z" fill="#1A202C" stroke="#4A5568" stroke-width="2"/>
<path d="M88.1404 26.2302C88.1404 14.08 97.9901 4.23022 110.14 4.23022H748.035C760.186 4.23022 770.035 14.08 770.035 26.2302V450.931H88.1404V26.2302Z" fill="black"/>
<path d="M1 467.313C1 466.208 1.89543 465.313 3 465.313H851.792C852.896 465.313 853.792 466.208 853.792 467.313V480.541H1V467.313Z" fill="#A3ACB1"/>
<path d="M1 467.313C1 466.208 1.89543 465.313 3 465.313H851.792C852.896 465.313 853.792 466.208 853.792 467.313V480.541H1V467.313Z" fill="url(#paint0_linear)"/>
<path d="M1 480.542H853.792L842.599 482.799C816.567 488.049 790.076 490.694 763.519 490.694H90.5942C61.4093 490.694 32.3119 487.5 3.82198 481.169L1 480.542Z" fill="#647279"/>
<path d="M1 480.542H853.792L842.599 482.799C816.567 488.049 790.076 490.694 763.519 490.694H90.5942C61.4093 490.694 32.3119 487.5 3.82198 481.169L1 480.542Z" fill="url(#paint1_linear)"/>
<path fill-rule="evenodd" clip-rule="evenodd" d="M357.204 465.313C357.639 471.927 363.142 477.157 369.866 477.157H485.771C492.496 477.157 497.999 471.927 498.434 465.313H357.204Z" fill="#96A1A8"/>
<path fill-rule="evenodd" clip-rule="evenodd" d="M357.204 465.313C357.639 471.927 363.142 477.157 369.866 477.157H485.771C492.496 477.157 497.999 471.927 498.434 465.313H357.204Z" fill="url(#paint2_linear)"/>
<defs>
<filter id="filter0_f" x="0.993164" y="447.54" width="853.651" height="96.4602" filterUnits="userSpaceOnUse" color-interpolation-filters="sRGB">
<feFlood flood-opacity="0" result="BackgroundImageFix"/>
<feBlend mode="normal" in="SourceGraphic" in2="BackgroundImageFix" result="shape"/>
<feGaussianBlur stdDeviation="22" result="effect1_foregroundBlur"/>
</filter>
<linearGradient id="paint0_linear" x1="1" y1="472.927" x2="853.792" y2="472.927" gradientUnits="userSpaceOnUse">
<stop stop-color="#0D1012"/>
<stop offset="0.0295345" stop-color="#CAD4DB"/>
<stop offset="0.0625" stop-color="#242729"/>
<stop offset="0.133609" stop-color="#A3ACB1"/>
<stop offset="0.865967" stop-color="#A3ACB1"/>
<stop offset="0.941937" stop-color="#242729"/>
<stop offset="0.971275" stop-color="#CAD4DB"/>
<stop offset="0.996436" stop-color="#0D1012"/>
</linearGradient>
<linearGradient id="paint1_linear" x1="427.396" y1="480.542" x2="427.396" y2="490.694" gradientUnits="userSpaceOnUse">
<stop stop-color="#7A7F83"/>
<stop offset="1" stop-color="#0B0B0E"/>
</linearGradient>
<linearGradient id="paint2_linear" x1="371.135" y1="472.504" x2="487.041" y2="472.504" gradientUnits="userSpaceOnUse">
<stop stop-color="#3C3C3C"/>
<stop offset="0.317518" stop-color="#3C3C3C" stop-opacity="0"/>
<stop offset="0.660584" stop-color="#3C3C3C" stop-opacity="0"/>
<stop offset="1" stop-color="#444444"/>
</linearGradient>
</defs>
</svg>
