<svg width="132" height="19" viewBox="0 0 132 19" fill="none" xmlns="http://www.w3.org/2000/svg">
<path d="M14.432 9.768H14.888V15.912C14.184 16.616 13.328 17.152 12.32 17.52C11.328 17.888 10.256 18.072 9.104 18.072C7.456 18.072 5.968 17.704 4.64 16.968C3.328 16.232 2.296 15.224 1.544 13.944C0.792 12.648 0.416 11.2 0.416 9.6C0.416 8 0.792 6.56 1.544 5.28C2.296 3.984 3.328 2.968 4.64 2.232C5.968 1.496 7.456 1.128 9.104 1.128C10.272 1.128 11.352 1.312 12.344 1.68C13.336 2.032 14.184 2.56 14.888 3.264L14.6 3.6C13.192 2.256 11.36 1.584 9.104 1.584C7.568 1.584 6.168 1.936 4.904 2.64C3.656 3.344 2.672 4.312 1.952 5.544C1.248 6.76 0.896 8.112 0.896 9.6C0.896 11.088 1.248 12.448 1.952 13.68C2.672 14.896 3.656 15.856 4.904 16.56C6.168 17.264 7.568 17.616 9.104 17.616C11.328 17.616 13.104 16.984 14.432 15.72V9.768ZM23.5859 18.072C22.4499 18.072 21.4179 17.808 20.4899 17.28C19.5779 16.736 18.8579 15.984 18.3299 15.024C17.8179 14.064 17.5619 12.984 17.5619 11.784C17.5619 10.584 17.8179 9.512 18.3299 8.568C18.8579 7.608 19.5779 6.864 20.4899 6.336C21.4179 5.792 22.4499 5.52 23.5859 5.52C24.7219 5.52 25.7459 5.792 26.6579 6.336C27.5859 6.864 28.3059 7.608 28.8179 8.568C29.3459 9.512 29.6099 10.584 29.6099 11.784C29.6099 12.984 29.3459 14.064 28.8179 15.024C28.3059 15.984 27.5859 16.736 26.6579 17.28C25.7459 17.808 24.7219 18.072 23.5859 18.072ZM23.5859 17.616C24.6259 17.616 25.5699 17.368 26.4179 16.872C27.2659 16.376 27.9299 15.688 28.4099 14.808C28.8899 13.912 29.1299 12.904 29.1299 11.784C29.1299 10.664 28.8899 9.664 28.4099 8.784C27.9299 7.888 27.2659 7.2 26.4179 6.72C25.5699 6.224 24.6259 5.976 23.5859 5.976C22.5459 5.976 21.6019 6.224 20.7539 6.72C19.9059 7.2 19.2419 7.888 18.7619 8.784C18.2819 9.664 18.0419 10.664 18.0419 11.784C18.0419 12.904 18.2819 13.912 18.7619 14.808C19.2419 15.688 19.9059 16.376 20.7539 16.872C21.6019 17.368 22.5459 17.616 23.5859 17.616ZM32.3544 0.191999H32.8344V18H32.3544V0.191999ZM47.6184 0.191999V18H47.1384V14.208C46.7224 15.392 46.0184 16.336 45.0264 17.04C44.0344 17.728 42.8904 18.072 41.5944 18.072C40.4744 18.072 39.4504 17.808 38.5224 17.28C37.6104 16.736 36.8904 15.984 36.3624 15.024C35.8344 14.064 35.5704 12.984 35.5704 11.784C35.5704 10.584 35.8344 9.512 36.3624 8.568C36.8904 7.608 37.6104 6.864 38.5224 6.336C39.4504 5.792 40.4744 5.52 41.5944 5.52C42.8744 5.52 44.0104 5.872 45.0024 6.576C46.0104 7.264 46.7224 8.192 47.1384 9.36V0.191999H47.6184ZM41.5944 17.616C42.6344 17.616 43.5784 17.368 44.4264 16.872C45.2744 16.376 45.9384 15.688 46.4184 14.808C46.8984 13.912 47.1384 12.904 47.1384 11.784C47.1384 10.664 46.8984 9.664 46.4184 8.784C45.9384 7.888 45.2744 7.2 44.4264 6.72C43.5784 6.224 42.6344 5.976 41.5944 5.976C40.5544 5.976 39.6104 6.224 38.7624 6.72C37.9144 7.2 37.2504 7.888 36.7704 8.784C36.2904 9.664 36.0504 10.664 36.0504 11.784C36.0504 12.904 36.2904 13.912 36.7704 14.808C37.2504 15.688 37.9144 16.376 38.7624 16.872C39.6104 17.368 40.5544 17.616 41.5944 17.616ZM68.8799 5.592L64.1039 18H63.6719L59.1119 6.264L54.5279 18H54.1199L49.3439 5.592H49.8239L54.3119 17.424L58.8719 5.592H59.3279L63.8879 17.424L68.3759 5.592H68.8799ZM70.6053 5.592H71.0853V18H70.6053V5.592ZM70.8453 2.16C70.6693 2.16 70.5173 2.096 70.3893 1.968C70.2773 1.84 70.2213 1.696 70.2213 1.536C70.2213 1.36 70.2773 1.216 70.3893 1.104C70.5173 0.975999 70.6693 0.912 70.8453 0.912C71.0053 0.912 71.1493 0.975999 71.2773 1.104C71.4053 1.216 71.4693 1.36 71.4693 1.536C71.4693 1.696 71.4053 1.84 71.2773 1.968C71.1493 2.096 71.0053 2.16 70.8453 2.16ZM80.9733 5.52C82.5253 5.52 83.7413 5.968 84.6213 6.864C85.5013 7.744 85.9413 9.016 85.9413 10.68V18H85.4613V10.68C85.4613 9.16 85.0693 8 84.2853 7.2C83.5173 6.384 82.4213 5.976 80.9973 5.976C79.3813 5.976 78.1013 6.464 77.1573 7.44C76.2293 8.4 75.7653 9.672 75.7653 11.256V18H75.2853V5.592H75.7653V8.904C76.1493 7.848 76.7893 7.024 77.6853 6.432C78.5813 5.824 79.6773 5.52 80.9733 5.52ZM100.629 12.936H90.3566L88.0046 18H87.4526L95.2526 1.2H95.7326L103.533 18H102.981L100.629 12.936ZM100.413 12.48L95.4926 1.848L90.5726 12.48H100.413ZM105.2 0.191999H105.68V18H105.2V0.191999ZM119.912 11.784H108.872C108.872 12.904 109.12 13.912 109.616 14.808C110.112 15.688 110.792 16.376 111.656 16.872C112.536 17.368 113.52 17.616 114.608 17.616C115.456 17.616 116.248 17.456 116.984 17.136C117.736 16.8 118.352 16.32 118.832 15.696L119.168 16.032C118.624 16.688 117.952 17.192 117.152 17.544C116.352 17.896 115.504 18.072 114.608 18.072C113.424 18.072 112.36 17.808 111.416 17.28C110.488 16.736 109.752 15.984 109.208 15.024C108.68 14.064 108.416 12.984 108.416 11.784C108.416 10.584 108.664 9.512 109.16 8.568C109.656 7.608 110.336 6.864 111.2 6.336C112.08 5.792 113.064 5.52 114.152 5.52C115.224 5.52 116.2 5.784 117.08 6.312C117.96 6.84 118.648 7.568 119.144 8.496C119.656 9.424 119.912 10.48 119.912 11.664V11.784ZM114.152 5.976C113.192 5.976 112.32 6.208 111.536 6.672C110.752 7.136 110.12 7.776 109.64 8.592C109.176 9.408 108.92 10.32 108.872 11.328H119.456C119.408 10.32 119.144 9.408 118.664 8.592C118.184 7.776 117.552 7.136 116.768 6.672C115.984 6.208 115.112 5.976 114.152 5.976ZM127.278 18.072C126.11 18.072 125.062 17.808 124.134 17.28C123.206 16.736 122.478 15.992 121.95 15.048C121.438 14.088 121.182 13 121.182 11.784C121.182 10.568 121.438 9.488 121.95 8.544C122.478 7.584 123.206 6.84 124.134 6.312C125.062 5.784 126.11 5.52 127.278 5.52C128.19 5.52 129.03 5.696 129.798 6.048C130.582 6.384 131.23 6.88 131.742 7.536L131.406 7.896C130.942 7.256 130.35 6.776 129.63 6.456C128.91 6.136 128.126 5.976 127.278 5.976C126.206 5.976 125.238 6.224 124.374 6.72C123.526 7.2 122.862 7.888 122.382 8.784C121.902 9.664 121.662 10.664 121.662 11.784C121.662 12.92 121.902 13.928 122.382 14.808C122.862 15.688 123.526 16.376 124.374 16.872C125.238 17.368 126.206 17.616 127.278 17.616C128.126 17.616 128.91 17.456 129.63 17.136C130.35 16.816 130.942 16.336 131.406 15.696L131.742 16.056C131.23 16.712 130.582 17.216 129.798 17.568C129.03 17.904 128.19 18.072 127.278 18.072Z" fill="#333333"/>
</svg>
