<svg width="34" height="29" viewBox="0 0 34 29" fill="none" xmlns="http://www.w3.org/2000/svg">
<path d="M15.432 14.768H15.888V20.912C15.184 21.616 14.328 22.152 13.32 22.52C12.328 22.888 11.256 23.072 10.104 23.072C8.456 23.072 6.968 22.704 5.64 21.968C4.328 21.232 3.296 20.224 2.544 18.944C1.792 17.648 1.416 16.2 1.416 14.6C1.416 13 1.792 11.56 2.544 10.28C3.296 8.984 4.328 7.968 5.64 7.232C6.968 6.496 8.456 6.128 10.104 6.128C11.272 6.128 12.352 6.312 13.344 6.68C14.336 7.032 15.184 7.56 15.888 8.264L15.6 8.6C14.192 7.256 12.36 6.584 10.104 6.584C8.568 6.584 7.168 6.936 5.904 7.64C4.656 8.344 3.672 9.312 2.952 10.544C2.248 11.76 1.896 13.112 1.896 14.6C1.896 16.088 2.248 17.448 2.952 18.68C3.672 19.896 4.656 20.856 5.904 21.56C7.168 22.264 8.568 22.616 10.104 22.616C12.328 22.616 14.104 21.984 15.432 20.72V14.768ZM30.6579 17.936H20.3859L18.0339 23H17.4819L25.2819 6.2H25.7619L33.5619 23H33.0099L30.6579 17.936ZM30.4419 17.48L25.5219 6.848L20.6019 17.48H30.4419Z" fill="#333333"/>
</svg>
