<svg width="146" height="293" viewBox="0 0 146 293" fill="none" xmlns="http://www.w3.org/2000/svg">
<path fill-rule="evenodd" clip-rule="evenodd" d="M123.279 0H22.5385C10.6566 0 1.0245 9.63214 1.0245 21.514V271.486C1.0245 283.368 10.6566 293 22.5385 293H123.279C135.16 293 144.793 283.368 144.793 271.486V21.514C144.793 9.63214 135.16 0 123.279 0ZM2.73196 21.514C2.73196 10.5751 11.5996 1.70746 22.5385 1.70746H123.279C134.217 1.70746 143.085 10.5751 143.085 21.514V271.486C143.085 282.425 134.217 291.293 123.279 291.293H22.5385C11.5996 291.293 2.73196 282.425 2.73196 271.486V21.514ZM1.02448 50.1993V39.2716C0.458673 39.2716 0 39.7303 0 40.2961V49.1748C0 49.7406 0.458673 50.1993 1.02448 50.1993ZM1.02448 60.444V81.6165C0.458673 81.6165 0 81.1578 0 80.592V61.4685C0 60.9027 0.458673 60.444 1.02448 60.444ZM144.793 101.423C145.358 101.423 145.817 100.964 145.817 100.399V68.2983C145.817 67.7325 145.358 67.2738 144.793 67.2738V101.423ZM1.02448 108.253V87.0805C0.458673 87.0805 0 87.5392 0 88.105V107.229C0 107.794 0.458673 108.253 1.02448 108.253Z" fill="#AABBCC"/>
<path fill-rule="evenodd" clip-rule="evenodd" d="M136.938 21.514C136.938 13.9671 130.826 7.85437 123.279 7.85437H111.156C109.647 7.85437 108.424 9.0775 108.424 10.5863V10.9278C108.424 15.094 105.077 18.4406 100.911 18.4406H44.9062C40.74 18.4406 37.3934 15.094 37.3934 10.9278V10.5863C37.3934 9.0775 36.1702 7.85437 34.6614 7.85437H22.5385C14.9915 7.85437 8.87879 13.9671 8.87879 21.514V271.486C8.87879 279.033 14.9915 285.146 22.5385 285.146H123.279C130.826 285.146 136.938 279.033 136.938 271.486V21.514ZM22.5385 1.70752H123.279C134.206 1.70752 143.085 10.5863 143.085 21.514V271.486C143.085 282.414 134.206 291.293 123.279 291.293H22.5385C11.6107 291.293 2.73193 282.414 2.73193 271.486V21.514C2.73193 10.5863 11.6107 1.70752 22.5385 1.70752Z" fill="#222222"/>
<path opacity="0.6" fill-rule="evenodd" clip-rule="evenodd" d="M50.1995 280.706C50.1995 280.235 50.5817 279.853 51.0532 279.853H95.1056C95.5771 279.853 95.9594 280.235 95.9594 280.706C95.9594 281.178 95.5771 281.56 95.1056 281.56H51.0532C50.5817 281.56 50.1995 281.178 50.1995 280.706Z" fill="#222222"/>
<path d="M90.6663 10.9278C90.6663 12.248 89.5961 13.3182 88.2759 13.3182C86.9557 13.3182 85.8854 12.248 85.8854 10.9278C85.8854 9.6076 86.9557 8.53735 88.2759 8.53735C89.5961 8.53735 90.6663 9.6076 90.6663 10.9278Z" fill="#4F4F4F"/>
<path d="M65.2252 9.90332C64.6594 9.90332 64.2007 10.362 64.2007 10.9278C64.2007 11.4936 64.6594 11.9523 65.2252 11.9523H80.2508C80.8166 11.9523 81.2753 11.4936 81.2753 10.9278C81.2753 10.362 80.8166 9.90332 80.2508 9.90332H65.2252Z" fill="#4F4F4F"/>
</svg>
