<svg width="30" height="27" viewBox="0 0 30 27" fill="none" xmlns="http://www.w3.org/2000/svg">
<path d="M12.0522 5.25258C12.8024 4.93797 13.117 4.04252 12.7782 3.31649L11.5924 0.823766C11.2536 0.122173 10.4307 -0.192685 9.70468 0.122173C7.64758 0.993416 5.88089 2.13087 4.47722 3.51034C2.75894 5.13158 1.59728 6.99507 0.968048 9.05217C0.338817 11.1337 0 13.965 0 17.571V25.0008C0 25.7994 0.653432 26.4528 1.45207 26.4528H10.9631C11.7618 26.4528 12.4152 25.7994 12.4152 25.0008V15.4897C12.4152 14.6908 11.7618 14.0376 10.9631 14.0376H6.41332C6.46172 11.5931 7.04255 9.633 8.1074 8.15649C8.97864 6.97111 10.2855 6.00306 12.0522 5.25258Z" fill="#AAAAAA"/>
<path d="M29.1383 5.25269C29.8886 4.93807 30.203 4.04263 29.8644 3.31659L28.6785 0.848313C28.3397 0.146479 27.5169 -0.168137 26.7908 0.146479C24.7579 1.01772 23.0152 2.15518 21.5876 3.51045C19.869 5.15613 18.6834 7.01962 18.054 9.07672C17.4247 11.1094 17.1104 13.9412 17.1104 17.5713V25.0011C17.1104 25.7998 17.7638 26.4532 18.5624 26.4532H28.0735C28.8721 26.4532 29.5256 25.7998 29.5256 25.0011V15.49C29.5256 14.6912 28.8721 14.038 28.0735 14.038H23.4995C23.5479 11.5934 24.1289 9.63335 25.1936 8.15683C26.0648 6.97122 27.3717 6.00317 29.1383 5.25269Z" fill="#AAAAAA"/>
</svg>
