<svg width="489" height="219" viewBox="0 0 489 219" fill="none" xmlns="http://www.w3.org/2000/svg">
<g clip-path="url(#clip0)">
<path d="M231.996 217.962H335.944C340.048 217.962 340.055 211.583 335.944 211.583H231.996C227.892 211.583 227.886 217.962 231.996 217.962Z" fill="#E6E6E6"/>
<path d="M203.931 79.3335H100.332C99.2377 79.3348 98.1885 79.7703 97.4147 80.5444C96.6409 81.3185 96.2055 82.368 96.2042 83.4627V104.05C101.372 104.171 104.726 108.437 105.539 113.615V132.278H105.932C105.994 132.278 106.054 132.303 106.098 132.347C106.142 132.392 106.167 132.451 106.167 132.514V142.445C106.167 142.507 106.142 142.567 106.098 142.611C106.054 142.655 105.994 142.68 105.932 142.68H105.539V202.705C105.539 204.023 105.526 206.429 105.526 206.429H203.931C205.026 206.428 206.075 205.993 206.849 205.219C207.623 204.445 208.058 203.395 208.059 202.3V83.4627C208.058 82.368 207.623 81.3185 206.849 80.5444C206.075 79.7703 205.026 79.3348 203.931 79.3335Z" fill="#ECD6B6"/>
<path d="M396.415 11.5946V124.244H215.224V74.6469C215.222 72.3949 214.327 70.2357 212.735 68.6432C211.143 67.0508 208.984 66.1552 206.733 66.1531H172.752V11.5946H396.415Z" fill="#ECD6B6"/>
<path d="M407.602 140.125H215.427V139.34H406.817V6.67262C406.815 5.11168 406.195 3.61516 405.091 2.51141C403.988 1.40765 402.492 0.78678 400.931 0.785012H165.889C164.328 0.786782 162.832 1.40765 161.729 2.51141C160.626 3.61516 160.005 5.11168 160.003 6.67262V65.6445H159.218V6.67262C159.22 4.90355 159.924 3.20749 161.174 1.95657C162.425 0.70564 164.12 0.001991 165.889 0H400.931C402.7 0.00198819 404.396 0.705632 405.646 1.95656C406.897 3.20749 407.6 4.90355 407.602 6.67262V140.125Z" fill="white"/>
<path d="M389.393 164.068H215.427V163.283H389.393C394.013 163.278 398.441 161.44 401.708 158.172C404.975 154.905 406.812 150.474 406.817 145.853V140.125H215.427V139.34H407.602V145.853C407.597 150.683 405.676 155.312 402.263 158.727C398.849 162.142 394.221 164.062 389.393 164.068Z" fill="white"/>
<path d="M337.763 202.534C328.065 193.219 321.685 181.065 319.634 164.068H248.159C247.432 179.969 241.093 191.895 229.657 202.492L228.449 202.534C240.247 191.839 246.746 179.825 247.391 163.66L247.406 163.283H320.332L320.373 163.63C322.387 180.915 328.9 193.147 338.837 202.471L337.763 202.534Z" fill="white"/>
<path d="M206.543 218.772H96.4392V217.987H206.543C208.794 217.985 210.953 217.089 212.544 215.497C214.136 213.905 215.032 211.746 215.034 209.494V74.8271C215.032 72.5753 214.136 70.4164 212.545 68.8241C210.953 67.2318 208.794 66.3361 206.543 66.3336H96.4392C94.188 66.3362 92.0298 67.2318 90.438 68.8241C88.8462 70.4164 87.9508 72.5753 87.9482 74.8271V103.889H87.1635V74.8271C87.1662 72.3672 88.1444 70.0088 89.8833 68.2693C91.6223 66.5298 93.98 65.5514 96.4392 65.5486H206.543C209.003 65.5514 211.36 66.5298 213.099 68.2693C214.838 70.0087 215.816 72.3672 215.819 74.8271V209.494C215.816 211.954 214.838 214.312 213.099 216.052C211.36 217.791 209.003 218.77 206.543 218.772Z" fill="white"/>
<path d="M151.491 75.4801C150.965 75.4801 150.45 75.324 150.013 75.0315C149.575 74.7391 149.234 74.3234 149.033 73.837C148.831 73.3507 148.779 72.8155 148.881 72.2992C148.984 71.783 149.238 71.3087 149.61 70.9365C149.982 70.5642 150.456 70.3107 150.972 70.208C151.488 70.1053 152.023 70.158 152.509 70.3594C152.996 70.5609 153.411 70.902 153.704 71.3397C153.996 71.7774 154.152 72.292 154.152 72.8184C154.151 73.5241 153.871 74.2006 153.372 74.6996C152.873 75.1986 152.197 75.4793 151.491 75.4801ZM151.491 70.7721C151.087 70.7721 150.691 70.8921 150.355 71.117C150.018 71.3418 149.756 71.6614 149.601 72.0354C149.446 72.4093 149.406 72.8208 149.485 73.2177C149.564 73.6147 149.758 73.9793 150.045 74.2655C150.331 74.5517 150.695 74.7466 151.092 74.8256C151.489 74.9045 151.9 74.864 152.274 74.7091C152.648 74.5542 152.967 74.2919 153.192 73.9553C153.417 73.6188 153.537 73.2231 153.537 72.8184C153.536 72.2759 153.321 71.7557 152.937 71.3721C152.554 70.9885 152.034 70.7727 151.491 70.7721Z" fill="white"/>
<path d="M151.491 215.764C150.82 215.764 150.163 215.565 149.605 215.191C149.047 214.818 148.611 214.288 148.354 213.667C148.097 213.047 148.03 212.364 148.161 211.705C148.292 211.046 148.616 210.441 149.09 209.966C149.565 209.491 150.17 209.168 150.829 209.037C151.487 208.906 152.17 208.973 152.79 209.23C153.411 209.487 153.941 209.922 154.314 210.481C154.687 211.039 154.886 211.696 154.886 212.367C154.885 213.268 154.527 214.131 153.891 214.768C153.254 215.405 152.391 215.763 151.491 215.764ZM151.491 209.756C150.975 209.756 150.47 209.909 150.041 210.196C149.612 210.483 149.277 210.891 149.079 211.368C148.882 211.845 148.83 212.37 148.931 212.877C149.032 213.383 149.28 213.849 149.645 214.214C150.01 214.579 150.476 214.828 150.982 214.929C151.488 215.029 152.013 214.978 152.49 214.78C152.967 214.582 153.375 214.248 153.662 213.818C153.948 213.389 154.102 212.884 154.102 212.367C154.101 211.675 153.825 211.011 153.336 210.522C152.847 210.032 152.183 209.757 151.491 209.756Z" fill="white"/>
<path d="M95.3334 219H58.886C56.1421 218.997 53.5116 217.905 51.5714 215.964C49.6312 214.024 48.5398 211.392 48.5367 208.648V114.241C48.5399 111.497 49.6312 108.865 51.5714 106.925C53.5116 104.984 56.1421 103.892 58.8859 103.889H95.3335C98.0773 103.892 100.708 104.984 102.648 106.925C104.588 108.865 105.68 111.497 105.683 114.241V131.136C105.869 131.213 106.027 131.344 106.139 131.512C106.251 131.68 106.31 131.876 106.311 132.078L106.311 143.071C106.31 143.272 106.251 143.469 106.139 143.637C106.027 143.804 105.869 143.935 105.683 144.013V208.648C105.68 211.392 104.588 214.024 102.648 215.964C100.708 217.905 98.0773 218.997 95.3334 219ZM58.8859 104.674C56.3502 104.677 53.9191 105.686 52.1261 107.48C50.333 109.273 49.3244 111.705 49.3215 114.241V208.648C49.3244 211.184 50.333 213.616 52.126 215.41C53.9191 217.203 56.3502 218.212 58.886 218.215H95.3334C97.8692 218.212 100.3 217.203 102.093 215.41C103.886 213.616 104.895 211.184 104.898 208.648V143.306H105.29C105.353 143.306 105.413 143.282 105.457 143.237C105.501 143.193 105.526 143.133 105.526 143.071L105.526 132.078C105.526 132.015 105.501 131.956 105.457 131.911C105.413 131.867 105.353 131.842 105.29 131.842H104.898V114.241C104.895 111.705 103.886 109.273 102.093 107.48C100.3 105.686 97.8692 104.677 95.3335 104.674H58.8859Z" fill="white"/>
<path d="M95.7352 106.873H90.9776C91.1964 107.409 91.2799 107.992 91.2208 108.568C91.1617 109.144 90.9617 109.697 90.6386 110.178C90.3155 110.659 89.8791 111.053 89.3678 111.326C88.8565 111.598 88.2861 111.741 87.7068 111.741H66.8265C66.2472 111.741 65.6768 111.598 65.1656 111.326C64.6543 111.053 64.2179 110.659 63.8948 110.178C63.5716 109.697 63.3717 109.144 63.3126 108.568C63.2535 107.992 63.337 107.409 63.5558 106.873H59.1122C57.1401 106.873 55.2488 107.656 53.8544 109.051C52.4599 110.446 51.6765 112.338 51.6765 114.311V208.578C51.6765 210.551 52.4599 212.443 53.8544 213.838C55.2488 215.233 57.1401 216.016 59.1122 216.016H95.7352C97.7073 216.016 99.5986 215.233 100.993 213.838C102.387 212.443 103.171 210.551 103.171 208.578V114.311C103.171 112.338 102.387 110.446 100.993 109.051C99.5985 107.656 97.7072 106.873 95.7352 106.873Z" fill="#ECD6B6"/>
<path d="M488.533 218.846H0.467202C0.405714 218.847 0.344795 218.835 0.287927 218.811C0.23106 218.788 0.179363 218.753 0.135811 218.71C0.0922589 218.667 0.0577054 218.615 0.034127 218.558C0.0105485 218.501 -0.00158691 218.44 -0.00158691 218.379C-0.00158691 218.317 0.0105485 218.257 0.034127 218.2C0.0577054 218.143 0.0922589 218.091 0.135811 218.048C0.179363 218.005 0.23106 217.97 0.287927 217.947C0.344795 217.923 0.405714 217.911 0.467202 217.912H488.533C488.594 217.911 488.655 217.923 488.712 217.947C488.769 217.97 488.821 218.005 488.864 218.048C488.908 218.091 488.942 218.143 488.966 218.2C488.989 218.257 489.002 218.317 489.002 218.379C489.002 218.44 488.989 218.501 488.966 218.558C488.942 218.615 488.908 218.667 488.864 218.71C488.821 218.753 488.769 218.788 488.712 218.811C488.655 218.835 488.594 218.847 488.533 218.846Z" fill="white"/>
<path d="M338.005 218.626H229.313C228.23 218.627 227.158 218.415 226.157 218.001C225.157 217.587 224.248 216.98 223.482 216.214C222.716 215.449 222.108 214.54 221.694 213.54C221.279 212.539 221.066 211.467 221.066 210.384C221.066 209.301 221.279 208.228 221.694 207.228C222.108 206.227 222.716 205.318 223.482 204.553C224.248 203.787 225.157 203.18 226.157 202.767C227.158 202.353 228.23 202.14 229.313 202.141H338.005C340.19 202.143 342.284 203.012 343.828 204.558C345.372 206.103 346.239 208.199 346.239 210.384C346.239 212.569 345.372 214.664 343.828 216.21C342.284 217.755 340.19 218.625 338.005 218.626ZM229.313 202.926C227.336 202.926 225.439 203.712 224.041 205.11C222.643 206.509 221.857 208.406 221.857 210.384C221.857 212.362 222.643 214.258 224.041 215.657C225.439 217.056 227.336 217.841 229.313 217.841H338.005C339.983 217.841 341.879 217.056 343.277 215.657C344.675 214.258 345.461 212.362 345.461 210.384C345.461 208.406 344.675 206.509 343.277 205.11C341.879 203.712 339.983 202.926 338.005 202.926H229.313Z" fill="white"/>
<path d="M416.927 155.867L419.971 162.234L445.968 153.519L441.475 144.122L416.927 155.867Z" fill="#FADCCF"/>
<path d="M419.932 177.339L410.365 157.331L418.093 153.633L424.246 166.502C425.152 168.396 425.268 170.572 424.57 172.551C423.872 174.53 422.416 176.151 420.523 177.057L419.932 177.339Z" fill="#8280A0"/>
<path d="M410.799 212.721L417.85 212.483L418.146 185.028L409.881 185.516L410.799 212.721Z" fill="#FADCCF"/>
<path d="M431.531 218.95H409.358V210.38H423.619C425.717 210.38 427.73 211.214 429.213 212.698C430.697 214.182 431.531 216.195 431.531 218.294V218.95Z" fill="#8280A0"/>
<path d="M411.379 208.597C410.787 208.597 410.213 208.398 409.748 208.033C409.282 207.669 408.953 207.158 408.811 206.584C404.949 191.06 390.576 112.843 403.286 97.4805L403.397 97.3465L403.565 97.3039C404.457 97.0781 421.276 91.8694 431.144 99.9996L431.26 100.095L436.752 115.998L451.558 137.983C452.368 139.187 452.929 140.541 453.207 141.966C453.485 143.391 453.474 144.857 453.175 146.277C452.876 147.698 452.295 149.044 451.467 150.236C450.638 151.427 449.579 152.441 448.351 153.215L428.909 165.488C428.44 165.772 427.894 165.903 427.347 165.865C426.799 165.826 426.277 165.619 425.852 165.273C425.495 164.977 425.22 164.594 425.055 164.16L420.969 153.943C420.725 153.324 420.721 152.635 420.957 152.013C421.194 151.391 421.654 150.879 422.248 150.578L431.357 146.022C431.606 145.885 431.822 145.695 431.99 145.465C432.158 145.235 432.274 144.971 432.329 144.691C432.354 144.439 432.317 144.184 432.222 143.948C432.127 143.713 431.976 143.504 431.782 143.339L421.209 134.222C420.973 134.019 420.684 133.889 420.377 133.848C420.069 133.808 419.756 133.858 419.476 133.992C419.196 134.127 418.962 134.34 418.802 134.606C418.642 134.872 418.563 135.179 418.574 135.49L421.196 204.707C421.22 205.357 421.005 205.993 420.592 206.496C420.179 206.998 419.597 207.332 418.955 207.433L411.803 208.563C411.663 208.585 411.521 208.597 411.379 208.597Z" fill="#8280A0"/>
<path d="M429.619 102.821C429.559 102.821 429.499 102.819 429.438 102.814L403.069 100.86C402.703 100.834 402.348 100.723 402.032 100.537C401.716 100.351 401.447 100.095 401.245 99.7877C401.044 99.4807 400.916 99.1314 400.872 98.7671C400.828 98.4027 400.868 98.0329 400.989 97.6866C402.611 93.0087 402.81 87.9547 401.561 83.1637C399.844 76.3901 399.803 63.7954 399.932 56.8908C399.961 55.7203 400.43 54.6039 401.246 53.7641C402.062 52.9244 403.164 52.4232 404.333 52.3604L404.333 52.3511L404.864 52.3576C409.16 52.4178 417.043 52.7243 423.494 54.0669C425.668 54.517 427.624 55.694 429.04 57.4043C430.456 59.1145 431.247 61.256 431.285 63.4763C431.431 69.8866 431.452 78.5632 430.725 83.4955C430.111 87.6565 431.245 95.6473 431.975 100.04C432.031 100.382 432.013 100.733 431.92 101.067C431.828 101.401 431.664 101.711 431.44 101.976C431.216 102.24 430.937 102.453 430.622 102.599C430.308 102.745 429.965 102.821 429.619 102.821H429.619Z" fill="white"/>
<path d="M439.032 127.965C438.33 127.629 437.71 127.142 437.215 126.54C436.721 125.938 436.365 125.235 436.172 124.48C435.979 123.725 435.954 122.937 436.098 122.171C436.242 121.406 436.553 120.681 437.007 120.048L424.828 67.5151H434.036L444.784 119.013C445.796 119.847 446.467 121.024 446.669 122.32C446.872 123.616 446.592 124.941 445.883 126.045C445.174 127.148 444.085 127.953 442.823 128.307C441.56 128.661 440.211 128.539 439.032 127.965H439.032Z" fill="#FADCCF"/>
<path d="M381.353 73.206L395.934 59.4093L401.427 67.1018L387.694 79.1901L405.704 93.4961C405.834 93.4873 405.963 93.4763 406.096 93.4763C407.204 93.4752 408.289 93.7935 409.221 94.3932C410.153 94.9928 410.893 95.8484 411.352 96.8575C411.811 97.8666 411.969 98.9866 411.808 100.083C411.647 101.18 411.174 102.207 410.444 103.042C409.715 103.877 408.761 104.484 407.696 104.79C406.631 105.097 405.5 105.09 404.439 104.77C403.378 104.451 402.431 103.832 401.712 102.988C400.993 102.145 400.532 101.112 400.385 100.013L400.328 100.07L381.584 83.8201C380.828 83.1651 380.218 82.359 379.793 81.4538C379.368 80.5485 379.137 79.5643 379.115 78.5643C379.093 77.5644 379.281 76.571 379.667 75.6481C380.052 74.7252 380.627 73.8933 381.353 73.206Z" fill="#FADCCF"/>
<path d="M425.799 70.8813C425.348 70.8827 424.906 70.7558 424.525 70.5154C424.143 70.275 423.838 69.931 423.645 69.5237C422.483 67.0701 421.683 64.461 421.271 61.7779C420.638 57.3952 423.685 54.788 426.783 54.22C429.797 53.6674 433.467 54.9928 434.406 59.208C434.484 59.5649 434.545 59.9255 434.588 60.2884C434.963 63.4838 435.317 65.969 435.638 67.6755C435.702 68.011 435.692 68.3561 435.611 68.6877C435.529 69.0192 435.377 69.3294 435.166 69.5974C434.955 69.8654 434.688 70.085 434.385 70.2413C434.081 70.3977 433.748 70.4872 433.407 70.5038L425.921 70.8781C425.88 70.8802 425.839 70.8813 425.799 70.8813Z" fill="white"/>
<path d="M415.359 47.8355C424.164 47.8355 431.302 40.6951 431.302 31.8871C431.302 23.079 424.164 15.9386 415.359 15.9386C406.553 15.9386 399.415 23.079 399.415 31.8871C399.415 40.6951 406.553 47.8355 415.359 47.8355Z" fill="#8280A0"/>
<path d="M415.455 49.084C422.664 49.084 428.508 43.2382 428.508 36.027C428.508 28.8158 422.664 22.97 415.455 22.97C408.246 22.97 402.402 28.8158 402.402 36.027C402.402 43.2382 408.246 49.084 415.455 49.084Z" fill="#FADCCF"/>
<path d="M392.287 64.5268C391.954 64.2232 391.714 63.831 391.595 63.3961C391.476 62.9611 391.483 62.5013 391.616 62.0704C392.417 59.4765 393.589 57.0124 395.097 54.7552C397.591 51.0968 401.598 51.2336 404.266 52.9088C406.861 54.5382 408.672 57.9961 406.517 61.738C406.334 62.0542 406.135 62.3611 405.921 62.6574C404.04 65.267 402.622 67.3381 401.706 68.8135C401.526 69.1035 401.286 69.3516 401.002 69.5409C400.718 69.7302 400.397 69.8565 400.06 69.9112C399.723 69.9659 399.378 69.9477 399.049 69.8579C398.72 69.7681 398.413 69.6088 398.151 69.3907L392.379 64.6072C392.347 64.5811 392.317 64.5543 392.287 64.5268Z" fill="white"/>
<path d="M412.261 17.6437C409.053 15.7288 408.359 10.9603 410.27 7.74934C412.181 4.53837 416.044 2.8634 419.778 2.753C425.113 2.59531 430.264 5.25207 433.998 9.06592C437.732 12.8798 440.196 17.7617 442.073 22.7586C443.951 27.7555 445.299 32.938 447.149 37.945C448.098 40.5144 449.267 43.1526 451.439 44.8211C453.611 46.4896 457.063 46.7905 458.92 44.777C458.913 47.9991 456.443 50.9282 453.38 51.9258C450.317 52.9235 446.853 52.1701 444.167 50.3901C439.509 47.3023 437.26 41.6656 435.975 36.2257C434.689 30.7858 434.056 25.0856 431.471 20.1296C430.4 18.0762 428.933 16.1256 426.868 15.0779C424.803 14.0301 422.052 14.0989 420.391 15.7125C419.622 16.4598 419.124 17.4789 418.251 18.1019C417.698 18.4475 417.074 18.6623 416.426 18.7298C415.778 18.7973 415.123 18.7157 414.511 18.4914C413.293 18.033 412.152 17.3893 411.13 16.5829" fill="#8280A0"/>
<path d="M401.823 27.2047C403.081 28.8966 404.668 30.3163 406.489 31.3781C408.31 32.4399 410.327 33.122 412.419 33.3832C414.511 33.6443 416.634 33.4792 418.66 32.8977C420.686 32.3162 422.573 31.3304 424.208 29.9997C425.476 28.9682 426.653 27.5467 426.574 25.9143C426.492 24.2422 425.126 22.9289 423.731 22.0041C420.061 19.5913 415.647 18.5768 411.292 19.1453C408.808 19.4793 406.316 20.3851 404.556 22.1713C402.797 23.9576 401.92 26.7356 402.828 29.0732" fill="#8280A0"/>
</g>
<defs>
<clipPath id="clip0">
<rect width="489" height="219" fill="white"/>
</clipPath>
</defs>
</svg>
