<svg width="30" height="31" viewBox="0 0 30 31" fill="none" xmlns="http://www.w3.org/2000/svg">
<g clip-path="url(#clip0)">
<path d="M29.9707 9.2926C29.9004 7.71176 29.6426 6.62494 29.2734 5.6832C28.8924 4.68357 28.3064 3.7886 27.5385 3.04461C26.7884 2.28904 25.88 1.70192 24.8837 1.33004C23.9286 0.963835 22.8385 0.708194 21.2444 0.638494C19.6385 0.562892 19.1287 0.54541 15.0557 0.54541C10.9826 0.54541 10.4728 0.562892 8.87281 0.632591C7.2788 0.702291 6.18292 0.958159 5.23357 1.32414C4.22538 1.70192 3.32295 2.28313 2.57276 3.04461C1.81089 3.7886 1.21911 4.68947 0.843904 5.67753C0.474646 6.62494 0.216875 7.70585 0.146594 9.2867C0.0703617 10.8793 0.0527344 11.3849 0.0527344 15.4243C0.0527344 19.4637 0.0703617 19.9694 0.140642 21.5561C0.210923 23.1369 0.468922 24.2238 0.838181 25.1655C1.21911 26.1651 1.81089 27.0601 2.57276 27.8041C3.32295 28.5597 4.23133 29.1468 5.22761 29.5187C6.18292 29.8849 7.27284 30.1405 8.86709 30.2102C10.4668 30.2801 10.9769 30.2974 15.0499 30.2974C19.123 30.2974 19.6328 30.2801 21.2328 30.2102C22.8268 30.1405 23.9227 29.8849 24.872 29.5187C26.8882 28.7456 28.4822 27.1648 29.2617 25.1655C29.6307 24.2181 29.8887 23.1369 29.959 21.5561C30.0293 19.9694 30.0469 19.4637 30.0469 15.4243C30.0469 11.3849 30.0409 10.8793 29.9707 9.2926ZM27.2691 21.4399C27.2045 22.8929 26.9585 23.6775 26.7533 24.2006C26.2492 25.4967 25.212 26.5254 23.905 27.0254C23.3776 27.2288 22.5807 27.4728 21.1213 27.5366C19.5389 27.6066 19.0644 27.6238 15.0616 27.6238C11.0588 27.6238 10.5783 27.6066 9.00169 27.5366C7.53657 27.4728 6.7454 27.2288 6.21795 27.0254C5.56757 26.787 4.97557 26.4092 4.49505 25.9152C3.99691 25.4327 3.61597 24.8515 3.3756 24.2065C3.17048 23.6834 2.92439 22.8929 2.86006 21.4458C2.78955 19.8765 2.77215 19.4056 2.77215 15.4359C2.77215 11.4662 2.78955 10.9897 2.86006 9.42632C2.92439 7.9733 3.17048 7.18867 3.3756 6.66558C3.61597 6.02035 3.99691 5.43347 4.501 4.95669C4.98724 4.46267 5.57329 4.08488 6.2239 3.84672C6.75135 3.6433 7.54847 3.39924 9.00765 3.33521C10.59 3.26551 11.0648 3.24803 15.0673 3.24803C19.0761 3.24803 19.5506 3.26551 21.1272 3.33521C22.5924 3.39924 23.3835 3.6433 23.911 3.84672C24.5614 4.08488 25.1534 4.46267 25.6339 4.95669C26.132 5.43914 26.513 6.02035 26.7533 6.66558C26.9585 7.18867 27.2045 7.97898 27.2691 9.42632C27.3394 10.9956 27.357 11.4662 27.357 15.4359C27.357 19.4056 27.3394 19.8706 27.2691 21.4399Z" fill="#333333"/>
<path d="M15.0556 7.78174C10.801 7.78174 7.349 11.205 7.349 15.4246C7.349 19.6443 10.801 23.0675 15.0556 23.0675C19.3104 23.0675 22.7622 19.6443 22.7622 15.4246C22.7622 11.205 19.3104 7.78174 15.0556 7.78174ZM15.0556 20.3824C12.2954 20.3824 10.0565 18.1622 10.0565 15.4246C10.0565 12.687 12.2954 10.4669 15.0556 10.4669C17.816 10.4669 20.0547 12.687 20.0547 15.4246C20.0547 18.1622 17.816 20.3824 15.0556 20.3824Z" fill="#333333"/>
<path d="M24.8663 7.47909C24.8663 8.46442 24.0607 9.26335 23.067 9.26335C22.0734 9.26335 21.2678 8.46442 21.2678 7.47909C21.2678 6.49353 22.0734 5.69482 23.067 5.69482C24.0607 5.69482 24.8663 6.49353 24.8663 7.47909Z" fill="#333333"/>
</g>
<defs>
<clipPath id="clip0">
<rect width="30" height="29.7521" fill="white" transform="translate(0 0.54541)"/>
</clipPath>
</defs>
</svg>
