<svg width="30" height="31" viewBox="0 0 30 31" fill="none" xmlns="http://www.w3.org/2000/svg">
<path d="M27.3633 5.05273H2.63672C1.1799 5.05273 0 6.23015 0 7.66766V23.3572C0 24.8033 1.18857 25.9722 2.63672 25.9722H27.3633C28.8079 25.9722 30 24.8082 30 23.3572V7.66766C30 6.23271 28.8248 5.05273 27.3633 5.05273ZM26.994 6.79602C26.4553 7.32743 17.1846 16.4732 16.8645 16.7889C16.3664 17.2829 15.7043 17.5548 15 17.5548C14.2957 17.5548 13.6336 17.2828 13.1339 16.7873C12.9186 16.5749 3.75018 7.53017 3.00598 6.79602H26.994ZM1.75781 23.0024V8.02358L9.35379 15.5171L1.75781 23.0024ZM3.00709 24.2289L10.6001 16.7465L11.8926 18.0216C12.7226 18.8448 13.8262 19.2981 15 19.2981C16.1738 19.2981 17.2774 18.8448 18.1058 18.0232L19.3999 16.7465L26.9929 24.2289H3.00709ZM28.2422 23.0024L20.6462 15.5171L28.2422 8.02358V23.0024Z" fill="#333333"/>
</svg>
