<svg width="33" height="30" viewBox="0 0 33 30" fill="none" xmlns="http://www.w3.org/2000/svg">
<path d="M16.4345 0C7.35445 0 0 6.88685 0 15.3806C0 22.1775 4.70849 27.9413 11.2371 29.9735C12.0588 30.1182 12.3601 29.6422 12.3601 29.2339C12.3601 28.8687 12.3464 27.9009 12.3396 26.6187C7.76806 27.5461 6.8039 24.5553 6.8039 24.5553C6.05613 22.7801 4.97555 22.3053 4.97555 22.3053C3.48686 21.3519 5.0906 21.3714 5.0906 21.3714C6.7409 21.4784 7.60782 22.9562 7.60782 22.9562C9.07323 25.3079 11.4549 24.6283 12.3944 24.2357C12.5423 23.2405 12.9655 22.5636 13.4352 22.1788C9.7854 21.794 5.9493 20.4714 5.9493 14.5785C5.9493 12.8998 6.58614 11.5277 7.64069 10.4516C7.4558 10.0629 6.90113 8.499 7.78449 6.38077C7.78449 6.38077 9.16088 5.96861 12.304 7.95771C13.6188 7.61597 15.0157 7.44641 16.4126 7.43858C17.8096 7.44641 19.2065 7.61597 20.5213 7.95771C23.6438 5.96861 25.0202 6.38077 25.0202 6.38077C25.9036 8.499 25.3489 10.0629 25.1846 10.4516C26.2323 11.5277 26.8691 12.8998 26.8691 14.5785C26.8691 20.4871 23.0275 21.7875 19.3708 22.1658C19.946 22.6275 20.4802 23.5705 20.4802 25.0118C20.4802 27.07 20.4596 28.7239 20.4596 29.2235C20.4596 29.6265 20.7472 30.1078 21.5895 29.9539C28.1647 27.9348 32.8691 22.1671 32.8691 15.3806C32.8691 6.88685 25.5105 0 16.4345 0Z" fill="#333333"/>
</svg>
