<svg width="20" height="20" viewBox="0 0 20 20" fill="none" xmlns="http://www.w3.org/2000/svg">
<g clip-path="url(#clip0)">
<path d="M19.5272 11.3772C19.3227 11.3261 19.1183 11.3772 18.9394 11.505C18.2748 12.0673 17.508 12.5274 16.6646 12.8341C15.8723 13.1408 15.0032 13.2942 14.0831 13.2942C12.0128 13.2942 10.1214 12.4507 8.7668 11.0961C7.41216 9.74143 6.56871 7.85005 6.56871 5.77976C6.56871 4.91075 6.72207 4.0673 6.97766 3.30052C7.25881 2.48263 7.66776 1.74141 8.2045 1.10243C8.43453 0.82128 8.38341 0.412333 8.10226 0.182301C7.92335 0.0545046 7.71888 0.00338629 7.5144 0.0545047C5.34187 0.642366 3.45049 1.94588 2.09585 3.68391C0.792335 5.39637 0 7.51779 0 9.84367C0 12.6296 1.1246 15.16 2.96487 17.0002C4.80513 18.8405 7.33549 19.9651 10.1214 19.9651C12.4729 19.9651 14.6454 19.1472 16.3834 17.7926C18.147 16.4124 19.425 14.4443 19.9617 12.1951C20.0895 11.8117 19.885 11.4539 19.5272 11.3772ZM15.6167 16.7191C14.1342 17.8948 12.2429 18.6105 10.1726 18.6105C7.74443 18.6105 5.54634 17.6137 3.96167 16.029C2.377 14.4443 1.3802 12.2462 1.3802 9.81811C1.3802 7.79894 2.04474 5.95868 3.1949 4.47624C3.98723 3.45388 4.98404 2.61042 6.13421 2.02256C6.00641 2.30371 5.87861 2.58486 5.77638 2.89157C5.44411 3.8117 5.29075 4.78295 5.29075 5.80532C5.29075 8.23344 6.28756 10.4571 7.87223 12.0418C9.4569 13.6264 11.6805 14.6232 14.1087 14.6232C15.1822 14.6232 16.2045 14.4443 17.1502 14.0865C17.4825 13.9587 17.8148 13.8309 18.1215 13.6775C17.508 14.8533 16.6646 15.9012 15.6167 16.7191Z" fill="#333333"/>
</g>
<defs>
<clipPath id="clip0">
<rect width="20" height="20" fill="white"/>
</clipPath>
</defs>
</svg>
