<svg width="101" height="100" viewBox="0 0 101 100" fill="none" xmlns="http://www.w3.org/2000/svg">
<g clip-path="url(#clip0)">
<path d="M100.269 50C100.269 53.8102 99.8422 57.5184 99.0362 61.0816C97.7831 66.6184 95.6118 71.8061 92.6893 76.4756C92.5649 76.6756 92.4383 76.8756 92.3098 77.0756C83.4096 90.8693 67.9055 100 50.2688 100C32.6321 100 17.128 90.8693 8.22798 77.0756C4.35649 71.0797 1.73403 64.2021 0.727979 56.8082C0.495361 55.1021 0.350439 53.3674 0.295361 51.6082C0.277002 51.0734 0.268799 50.5389 0.268799 50C0.268799 45.1367 0.962744 40.4367 2.25649 35.9918C2.77485 34.2143 3.38911 32.4775 4.09536 30.7877C5.24028 28.0326 6.62798 25.4041 8.22798 22.9244C17.128 9.13066 32.6321 0 50.2688 0C67.9055 0 83.4096 9.13066 92.3096 22.9244C94.334 26.0611 96.0178 29.4387 97.3077 33.0061C97.9178 34.7 98.4424 36.4367 98.8709 38.2102C99.2832 39.9121 99.6077 41.649 99.8383 43.4143C100.065 45.1225 100.202 46.8592 100.251 48.6184C100.263 49.0775 100.269 49.5367 100.269 50Z" fill="#5C5E70"/>
<path d="M92.3097 24.9531V77.0756C83.4097 90.8693 67.9056 100 50.2688 100C32.6321 100 17.128 90.8693 8.22803 77.0756V4.45312C8.22803 1.99395 10.222 0 12.6812 0H67.3567L92.3097 24.9531Z" fill="#F9EED7"/>
<path d="M67.3564 20.4996V0L92.3096 24.9531H71.81C69.3504 24.9531 67.3564 22.9592 67.3564 20.4996Z" fill="#E8DBC4"/>
<path d="M92.3097 64.6411V77.0759C83.4097 90.8696 67.9056 100 50.2688 100C32.6321 100 17.128 90.8696 8.22803 77.0759V64.6411H92.3097Z" fill="#34ABE0"/>
<path d="M35.2221 73.5685C33.7502 73.5685 32.8982 74.3949 32.8982 76.1505V82.9931C32.8982 84.749 33.7502 85.5753 35.248 85.5753C37.3137 85.5753 37.443 84.0001 37.5203 82.9931C37.5979 82.0378 38.4758 81.7794 39.5086 81.7794C40.9029 81.7794 41.5484 82.141 41.5484 83.6902C41.5484 87.1246 38.7596 89.0869 35.0672 89.0869C31.6846 89.0869 28.8701 87.4341 28.8701 82.9929V76.1503C28.8701 71.7091 31.6846 70.0564 35.0672 70.0564C38.7596 70.0564 41.5484 71.9156 41.5484 75.1949C41.5484 76.7441 40.9029 77.1056 39.5344 77.1056C38.45 77.1056 37.5719 76.8216 37.5203 75.8919C37.4945 75.2212 37.417 73.5685 35.2221 73.5685Z" fill="#F9EED7"/>
<path d="M53.9157 83.8709C53.9157 80.7465 45.7303 81.2887 45.7303 75.2465C45.7303 71.3732 49.1127 69.9014 52.3407 69.9014C53.7092 69.9014 57.4793 70.1596 57.4793 72.1736C57.4793 72.8707 57.0147 74.291 55.8783 74.291C54.9489 74.291 54.4582 73.3098 52.3409 73.3098C50.5077 73.3098 49.7588 74.0586 49.7588 74.8592C49.7588 77.4412 57.9442 76.9508 57.9442 83.4578C57.9442 87.1762 55.233 89.19 51.4887 89.19C48.1063 89.19 45.2659 87.5373 45.2659 85.8334C45.2659 84.9555 46.0405 83.6645 47.0217 83.6645C48.2352 83.6645 49.0098 85.5752 51.4116 85.5752C52.5989 85.5752 53.9157 85.1104 53.9157 83.8709Z" fill="#F9EED7"/>
<path d="M70.2599 83.8709C70.2599 80.7465 62.0746 81.2887 62.0746 75.2465C62.0746 71.3732 65.457 69.9014 68.6849 69.9014C70.0535 69.9014 73.8236 70.1596 73.8236 72.1736C73.8236 72.8707 73.3589 74.291 72.2226 74.291C71.2931 74.291 70.8025 73.3098 68.6851 73.3098C66.8519 73.3098 66.1031 74.0586 66.1031 74.8592C66.1031 77.4412 74.2884 76.9508 74.2884 83.4578C74.2884 87.1762 71.5773 89.19 67.833 89.19C64.4505 89.19 61.6101 87.5373 61.6101 85.8334C61.6101 84.9555 62.3847 83.6645 63.366 83.6645C64.5794 83.6645 65.3541 85.5752 67.7558 85.5752C68.9429 85.5752 70.2599 85.1104 70.2599 83.8709Z" fill="#F9EED7"/>
<path d="M36.3869 34.123C36.3869 33.3996 35.8701 30.9882 35.8701 29.8513C35.8701 26.7166 39.7626 23.823 43.4142 23.823C45.791 23.823 46.4113 25.0632 46.4113 26.1654C46.4113 27.1644 45.8945 28.3355 44.7921 28.3355C43.7589 28.3355 41.2439 28.7144 41.2439 30.5748C41.2439 31.4015 41.7607 33.9849 41.7607 34.8117C41.7607 35.8451 40.9337 36.9128 40.5205 37.0509C41.0027 37.1886 41.7607 38.1876 41.7607 39.2556C41.7607 40.1167 41.2439 43.9406 41.2439 44.6294C41.2439 46.1107 43.5863 46.4552 44.7921 46.4552C46.0666 46.4552 46.4113 47.833 46.4113 48.6943C46.4113 50.2445 45.3433 50.9679 43.3455 50.9679C39.7285 50.9679 35.8703 48.6255 35.8703 45.3185C35.8703 44.1128 36.3871 40.6681 36.3871 39.9103C36.3871 38.4291 34.3201 39.3935 34.3201 36.9478C34.3199 34.5363 36.3869 35.5353 36.3869 34.123Z" fill="#34ABE0"/>
<path d="M64.1507 39.9081C64.1507 40.6659 64.6673 44.1108 64.6673 45.3163C64.6673 48.6233 60.8093 50.9657 57.1923 50.9657C55.1943 50.9657 54.1267 50.2423 54.1267 48.6921C54.1267 47.831 54.4712 46.453 55.7459 46.453C56.9513 46.453 59.2941 46.1085 59.2941 44.6272C59.2941 43.9384 58.7773 40.1145 58.7773 39.2534C58.7773 38.1856 59.5353 37.1866 60.0173 37.0487C59.6041 36.911 58.7773 35.8431 58.7773 34.8095C58.7773 33.9827 59.2941 31.3993 59.2941 30.5726C59.2941 28.7124 56.7794 28.3333 55.7459 28.3333C54.6437 28.3333 54.1267 27.162 54.1267 26.1632C54.1267 25.061 54.7466 23.8208 57.1238 23.8208C60.7752 23.8208 64.6677 26.7146 64.6677 29.8491C64.6677 30.9858 64.1511 33.3974 64.1511 34.1208C64.1511 35.5331 66.2179 34.5341 66.2179 36.9454C66.2175 39.3913 64.1507 38.4269 64.1507 39.9081Z" fill="#34ABE0"/>
</g>
<defs>
<clipPath id="clip0">
<rect width="100" height="100" fill="white" transform="translate(0.268799)"/>
</clipPath>
</defs>
</svg>
