<svg width="67" height="100" viewBox="0 0 67 100" fill="none" xmlns="http://www.w3.org/2000/svg">
<g clip-path="url(#clip0)">
<path d="M16.6733 100C25.8733 100 33.34 92.5337 33.34 83.3337V66.667H16.6733C7.47332 66.667 0.00665283 74.1337 0.00665283 83.3337C0.00665283 92.5337 7.47332 100 16.6733 100Z" fill="black"/>
<path d="M0.00665283 50.0002C0.00665283 40.8002 7.47332 33.3335 16.6733 33.3335H33.34V66.6668H16.6733C7.47332 66.6668 0.00665283 59.2002 0.00665283 50.0002Z" fill="black"/>
<path d="M0.00646973 16.6667C0.00646973 7.46667 7.47314 0 16.6731 0H33.3398V33.3333H16.6731C7.47314 33.3333 0.00646973 25.8667 0.00646973 16.6667Z" fill="black"/>
<path d="M33.34 0H50.0067C59.2067 0 66.6734 7.46667 66.6734 16.6667C66.6734 25.8667 59.2067 33.3333 50.0067 33.3333H33.34V0Z" fill="black"/>
<path d="M66.6734 50.0002C66.6734 59.2002 59.2067 66.6668 50.0067 66.6668C40.8067 66.6668 33.34 59.2002 33.34 50.0002C33.34 40.8002 40.8067 33.3335 50.0067 33.3335C59.2067 33.3335 66.6734 40.8002 66.6734 50.0002Z" fill="black"/>
</g>
<defs>
<clipPath id="clip0">
<rect width="66.68" height="100" fill="white"/>
</clipPath>
</defs>
</svg>
