<svg width="100" height="100" viewBox="0 0 100 100" fill="none" xmlns="http://www.w3.org/2000/svg">
<g clip-path="url(#clip0)">
<path d="M66.0447 0H14.2197C12.7768 0 11.6072 1.16964 11.6072 3.43929V98.2143C11.6072 98.8304 12.7768 100 14.2197 100H85.7804C87.2233 100 88.3929 98.8304 88.3929 98.2143V23.175C88.3929 21.9321 88.2268 21.5321 87.934 21.2375L67.1554 0.458929C66.8608 0.166071 66.4608 0 66.0447 0Z" fill="#E9E9E0"/>
<path d="M66.9644 0.269531V21.4285H88.1233L66.9644 0.269531Z" fill="#D9D7CA"/>
<path d="M85.7804 100H14.2197C12.7768 100 11.6072 98.8305 11.6072 97.3877V69.6431H88.3929V97.3877C88.3929 98.8305 87.2233 100 85.7804 100Z" fill="#EC6630"/>
<path d="M31.1697 76.6499V94.6428H28.2393V86.5374H20.4518V94.6428H17.4733V76.6499H20.4518V84.5356H28.2393V76.6499H31.1697Z" fill="white"/>
<path d="M48.4055 76.6499V78.6517H43.0358V94.6428H40.0822V78.6517H34.7108V76.6499H48.4055Z" fill="white"/>
<path d="M65.5447 76.6499H68.5233V94.6428H65.5447V82.2642L61.5161 92.2731H58.9286L54.8751 82.2642V94.6428H51.8965V76.6499H54.8751L60.2215 88.9553L65.5447 76.6499Z" fill="white"/>
<path d="M76.0179 76.6499V92.4213H84.2947V94.6428H73.0393V76.6499H76.0179Z" fill="white"/>
<path d="M41.441 29.0945C40.7428 28.3962 39.6143 28.3962 38.916 29.0945L28.2018 39.8087C27.5035 40.507 27.5035 41.6355 28.2018 42.3338L38.916 53.048C39.2643 53.3963 39.7214 53.5713 40.1785 53.5713C40.6357 53.5713 41.0928 53.3963 41.441 53.048C42.1393 52.3498 42.1393 51.2213 41.441 50.523L31.9893 41.0713L41.441 31.6195C42.1393 30.9213 42.1393 29.7927 41.441 29.0945Z" fill="#EC6630"/>
<path d="M73.5839 39.8087L62.8696 29.0945C62.1714 28.3962 61.0428 28.3962 60.3446 29.0945C59.6464 29.7927 59.6464 30.9213 60.3446 31.6195L69.7964 41.0713L60.3446 50.523C59.6464 51.2213 59.6464 52.3498 60.3446 53.048C60.6928 53.3963 61.1499 53.5713 61.6071 53.5713C62.0642 53.5713 62.5214 53.3963 62.8696 53.048L73.5839 42.3338C74.2821 41.6355 74.2821 40.507 73.5839 39.8087Z" fill="#EC6630"/>
</g>
<defs>
<clipPath id="clip0">
<rect width="100" height="100" fill="white"/>
</clipPath>
</defs>
</svg>
