<svg width="106" height="100" viewBox="0 0 106 100" fill="none" xmlns="http://www.w3.org/2000/svg">
<g clip-path="url(#clip0)">
<path d="M66.6891 27.3638C66.6485 27.4025 66.588 27.4218 66.5475 27.4407C66.7901 28.4804 66.7296 29.5781 66.5272 30.6372C67.2144 31.369 66.9114 32.8129 65.577 32.8129C63.6768 32.7935 61.7964 32.7935 59.8961 32.7935C64.5056 44.8663 70.7326 57.5552 73.8464 70.0712C75.3426 64.6221 77.3438 59.2886 78.2944 53.7047C79.8714 44.5394 77.2834 38.3392 74.5945 29.7899C73.1185 25.1495 73.6443 21.2216 76.5353 18.2755C67.498 12.5567 57.3285 9.62989 46.2291 11.4208C39.1732 12.5374 32.865 15.2911 27.3054 19.5656C25.1423 21.2409 23.3024 23.1276 21.1591 24.6874C24.414 24.6874 27.6693 24.7836 30.9039 24.8605C31.8743 24.8991 32.3798 25.5923 32.4204 26.3237C32.7036 26.5161 32.9056 26.8244 32.9462 27.2865C32.9462 27.402 32.9665 27.5176 32.9665 27.6331C33.0472 28.9425 32.9665 30.2902 32.9259 31.5996C32.9056 32.2541 32.3194 32.9284 31.5713 32.8897C30.0954 32.7935 28.6194 32.5818 27.1435 32.3508C32.4606 43.7883 36.8482 55.7841 41.7409 67.4334C42.0241 66.7016 42.3271 65.9702 42.6103 65.2384C44.1268 59.0382 45.9662 52.6842 48.6353 47.1003C46.2494 42.5368 44.3288 37.2608 43.3584 32.3319C41.4983 32.197 39.6381 32.0428 37.7785 31.8118C37.0506 31.7156 36.7472 31.0993 36.8888 30.5985C36.808 30.4637 36.7472 30.3095 36.7269 30.1171C36.6056 29.2316 36.5046 28.3842 36.464 27.4987C36.4437 27.2096 36.4437 26.921 36.4437 26.632C36.4437 25.8809 36.9893 25.4961 37.576 25.4188C37.6567 25.2264 37.7983 25.0529 38.0409 25.0142C43.2772 24.2055 48.615 24.4752 53.8914 24.5328C57.4295 24.5714 63.2723 23.5699 66.5276 25.0718C67.397 25.457 67.4173 26.6316 66.8311 27.2281C66.7698 27.2869 66.7296 27.3252 66.6891 27.3638ZM89.9395 15.368C106.114 29.2702 109.369 51.8756 101.12 70.6295C92.3051 90.6353 71.4 98.4335 49.9692 99.9933C49.5245 100.032 49.2008 99.8971 48.9784 99.6854C25.4854 99.204 5.22745 82.6446 1.24431 60.1359C-2.43535 39.3983 7.9164 18.7376 26.3548 7.45421C47.907 -5.73553 71.6422 -0.382673 89.9395 15.368ZM77.0404 82.4715C90.0806 70.4371 96.9547 56.15 92.5472 38.7438C87.4525 53.3194 82.3578 67.9724 77.0404 82.4715ZM65.7389 88.7293C63.2119 84.32 61.6751 79.3137 59.7951 74.654C57.6721 69.3973 55.4485 64.16 53.4671 58.8651C49.6255 69.3591 45.8652 79.93 41.3364 90.0967C45.7641 90.7512 50.1919 91.2133 54.6801 90.9054C58.5816 90.6546 62.0796 89.6342 65.7389 88.7293ZM32.6829 85.8218C26.193 69.2049 18.9752 52.7031 13.173 35.8745C3.48863 54.7826 14.4262 75.424 32.6829 85.8218Z" fill="#0071BC"/>
</g>
<defs>
<clipPath id="clip0">
<rect width="105" height="100" fill="white" transform="translate(0.5)"/>
</clipPath>
</defs>
</svg>
