<svg width="105" height="100" viewBox="0 0 105 100" fill="none" xmlns="http://www.w3.org/2000/svg">
<path d="M0 87.1059C0 94.2277 6.0617 100 13.5388 100H91.4607C98.9391 100 105 94.227 105 87.1059V12.8945C105 5.77226 98.9383 0 91.4612 0H13.5393C6.06088 0 0 5.77305 0 12.8941V87.1055V87.1059Z" fill="#563D7C"/>
<path d="M43.5414 44.2336V30.0723H56.63C57.8769 30.0723 59.0786 30.1711 60.2361 30.3691C61.3936 30.5668 62.4177 30.9199 63.3082 31.4289C64.1982 31.9379 64.9107 32.6445 65.4451 33.5488C65.9791 34.4535 66.2466 35.6125 66.2466 37.0254C66.2466 39.5695 65.4451 41.407 63.8422 42.5375C62.2397 43.6684 60.1918 44.2336 57.6985 44.2336H43.5414ZM29.562 19.7266V80.2734H60.3698C63.2192 80.2734 65.9943 79.9344 68.6952 79.2559C71.3961 78.5773 73.8 77.5316 75.9074 76.1184C78.0144 74.7051 79.6916 72.8816 80.938 70.6488C82.1849 68.4156 82.8079 65.7727 82.8079 62.7199C82.8079 58.932 81.8432 55.6957 79.9143 53.0105C77.9849 50.325 75.0613 48.4453 71.1434 47.3711C73.9928 46.0711 76.1449 44.4031 77.5993 42.368C79.0533 40.3328 79.7806 37.7891 79.7806 34.7359C79.7806 31.9094 79.2908 29.5352 78.3114 27.6129C77.3319 25.691 75.9517 24.1504 74.1708 22.9914C72.3903 21.8324 70.2534 20.9984 67.7601 20.4898C65.2671 19.9809 62.5067 19.7266 59.4794 19.7266H29.562ZM43.5414 69.9277V53.307H58.7669C61.7943 53.307 64.2282 53.9711 66.0686 55.3C67.9085 56.6285 68.8289 58.8473 68.8289 61.9566C68.8289 63.5398 68.5467 64.8398 67.9828 65.8574C67.4188 66.875 66.6621 67.6809 65.7121 68.2742C64.7626 68.868 63.6642 69.2918 62.4177 69.5465C61.1709 69.8004 59.8653 69.9277 58.4999 69.9277H43.5414Z" fill="white"/>
</svg>
