<svg width="105" height="100" viewBox="0 0 105 100" fill="none" xmlns="http://www.w3.org/2000/svg">
<g clip-path="url(#clip0)">
<path d="M4.375 4.28271H100.625V95.717H4.375V4.28271Z" fill="url(#paint0_radial)"/>
<path d="M4.37495 4.28235H100.625V95.7171H4.37495V4.28235ZM0 99.9899H105V0.00976562H0V99.9899ZM70.7876 41.0272C67.3313 41.0272 66.1502 42.7362 66.1502 44.1461C66.1502 45.6842 66.9376 46.7524 71.5752 49.1024C78.4439 52.3497 80.5878 55.4687 80.5878 60.0405C80.5878 66.8766 75.2503 70.5511 68.0314 70.5511C64.2251 70.5511 60.9438 69.782 59.0626 68.714C58.7564 68.5858 58.7127 68.3722 58.7127 68.0303V61.7495C58.7127 61.3223 58.9314 61.1939 59.2378 61.4077C61.994 63.1596 65.1439 63.9286 68.0314 63.9286C71.4877 63.9286 72.9315 62.5186 72.9315 60.5958C72.9315 59.0577 71.9252 57.6905 67.5063 55.4687C61.2937 52.5633 58.7127 49.6152 58.7127 44.7017C58.7127 39.1898 63.1315 34.6182 70.7876 34.6182C74.5502 34.6182 77.1752 35.1737 78.6189 35.8145C78.9689 36.0281 79.0564 36.3699 79.0564 36.669V42.5224C79.0564 42.8642 78.8376 43.0779 78.4 42.9496C76.4751 41.7536 73.6314 41.0272 70.7876 41.0272ZM33.1625 46.1116C34.1688 46.1971 34.9564 46.1971 36.7063 46.1971C41.8253 46.1971 46.6377 44.4453 46.6377 37.6519C46.6377 32.2257 43.1813 29.491 37.3627 29.491C35.6127 29.491 33.9501 29.5765 33.1625 29.6192V46.1116ZM25.3752 23.4238C25.3752 23.1248 25.9878 22.911 26.3375 22.911C29.1377 22.7828 33.2939 22.6974 37.6251 22.6974C49.7439 22.6974 54.4688 29.1918 54.4688 37.4808C54.4688 48.3333 46.4188 52.9905 36.5313 52.9905C34.8689 52.9905 34.3002 52.9051 33.1188 52.9051V69.3121C33.1188 69.6538 32.9875 69.8247 32.5938 69.8247H25.9001C25.5501 69.8247 25.375 69.6966 25.375 69.3121V23.4238H25.3752Z" fill="#31C5F0"/>
</g>
<defs>
<radialGradient id="paint0_radial" cx="0" cy="0" r="1" gradientUnits="userSpaceOnUse" gradientTransform="translate(36.0751 24.7732) scale(73.1501 69.1653)">
<stop stop-color="#34364E" stop-opacity="0.98"/>
<stop offset="1" stop-color="#0C0824"/>
</radialGradient>
<clipPath id="clip0">
<rect width="105" height="100" fill="white"/>
</clipPath>
</defs>
</svg>
