<svg width="105" height="100" viewBox="0 0 105 100" fill="none" xmlns="http://www.w3.org/2000/svg">
<g clip-path="url(#clip0)">
<path d="M52.5 2.08301C23.4937 2.08301 0 24.083 0 51.2163C0 72.9288 15.0412 91.3413 35.8969 97.833C38.5219 98.2955 39.4844 96.7747 39.4844 95.4705C39.4844 94.3038 39.4406 91.2122 39.4187 87.1163C24.815 90.0788 21.735 80.5247 21.735 80.5247C19.3462 74.8539 15.8944 73.3372 15.8944 73.3372C11.1387 70.2913 16.2619 70.3538 16.2619 70.3538C21.5337 70.6955 24.3031 75.4164 24.3031 75.4164C28.9844 82.9288 36.5925 80.758 39.5937 79.5038C40.0662 76.3247 41.4181 74.1622 42.9187 72.933C31.2594 71.7038 19.005 67.4788 19.005 48.6538C19.005 43.2913 21.0394 38.908 24.4081 35.4705C23.8175 34.2288 22.0456 29.233 24.8675 22.4663C24.8675 22.4663 29.2644 21.1497 39.305 27.5038C43.505 26.4122 47.9675 25.8705 52.43 25.8455C56.8925 25.8705 61.355 26.4122 65.555 27.5038C75.53 21.1497 79.9269 22.4663 79.9269 22.4663C82.7487 29.233 80.9769 34.2288 80.4519 35.4705C83.7987 38.908 85.8331 43.2913 85.8331 48.6538C85.8331 67.5288 73.5612 71.683 61.88 72.8913C63.7175 74.3663 65.4237 77.3789 65.4237 81.983C65.4237 88.558 65.3581 93.8414 65.3581 95.4372C65.3581 96.7247 66.2769 98.2622 68.9675 97.7705C89.9719 91.3205 105 72.8955 105 51.2163C105 24.083 81.4931 2.08301 52.5 2.08301Z" fill="white"/>
</g>
<defs>
<clipPath id="clip0">
<rect width="105" height="100" fill="white"/>
</clipPath>
</defs>
</svg>
