<svg width="101" height="95" viewBox="0 0 101 95" fill="none" xmlns="http://www.w3.org/2000/svg">
<path fill-rule="evenodd" clip-rule="evenodd" d="M98.5885 70.097L98.1367 71.2029C90.4387 85.3609 76.7968 94.0468 57.3392 94.4299C48.2431 94.6072 39.5763 92.4028 33.9145 90.0063C21.6965 84.8218 11.4193 75.2073 5.80701 64.9347C-2.24395 50.2089 -3.6959 29.7243 13.0443 14.4243C13.3028 14.4243 11.0136 17.742 11.2721 17.742L10.8113 19.1578C-1.25162 54.8246 35.9138 85.3907 72.0419 81.8947C80.7245 81.0541 91.7962 76.5636 98.5885 70.097Z" fill="#21609B"/>
<path fill-rule="evenodd" clip-rule="evenodd" d="M76.7259 55.3497C85.8152 55.4081 95.3092 51.3962 100.932 45.7638C96.0127 57.5551 81.7707 65.134 62.6727 62.7238C46.6809 60.703 31.4477 45.5059 29.8789 30.278C28.7315 19.1957 32.821 12.5815 39.5605 4.55786C37.2184 8.75434 36.343 11.9903 36.125 14.0546C33.5649 38.0278 56.403 55.2234 76.7259 55.3497Z" fill="#21609B"/>
<path fill-rule="evenodd" clip-rule="evenodd" d="M100.018 25.5726C98.6054 28.6335 90.4701 34.4135 86.8773 35.1362C72.651 37.9986 63.5403 31.6275 58.7675 24.3776C58.0584 23.295 56.7469 20.3382 56.512 19.5857C54.6611 13.6423 55.5118 4.65285 61.0331 0C59.3699 4.42466 59.1271 9.5636 60.0026 12.9047C60.533 14.9244 62.149 18.4511 63.7662 20.6693C66.7083 24.7098 68.575 25.6915 72.3543 27.8375C74.0569 28.8033 75.8831 29.5781 76.672 29.7903C80.2558 30.7869 87.8224 33.4116 100.019 25.5726" fill="#21609B"/>
</svg>
