<svg width="67" height="100" viewBox="0 0 67 100" fill="none" xmlns="http://www.w3.org/2000/svg">
<g clip-path="url(#clip0)">
<path d="M31.8399 83.3337C31.8399 91.7053 25.0448 98.5004 16.6733 98.5004C8.30169 98.5004 1.50659 91.7053 1.50659 83.3337C1.50659 74.9621 8.30169 68.167 16.6733 68.167H31.8399V83.3337Z" fill="#333333" stroke="#CCCCCC" stroke-width="3"/>
<path d="M1.50659 50.0002C1.50659 41.6286 8.30169 34.8335 16.6733 34.8335H31.8399V65.1668H16.6733C8.30169 65.1668 1.50659 58.3717 1.50659 50.0002Z" fill="#333333" stroke="#CCCCCC" stroke-width="3"/>
<path d="M1.50659 16.6667C1.50659 8.29509 8.30169 1.5 16.6733 1.5H31.8399V31.8333H16.6733C8.30169 31.8333 1.50659 25.0382 1.50659 16.6667Z" fill="#333333" stroke="#CCCCCC" stroke-width="3"/>
<path d="M34.8401 1.5H50.0068C58.3783 1.5 65.1734 8.2951 65.1734 16.6667C65.1734 25.0382 58.3783 31.8333 50.0068 31.8333H34.8401V1.5Z" fill="#333333" stroke="#CCCCCC" stroke-width="3"/>
<path d="M65.1734 50.0002C65.1734 58.3717 58.3783 65.1668 50.0068 65.1668C41.6352 65.1668 34.8401 58.3717 34.8401 50.0002C34.8401 41.6286 41.6352 34.8335 50.0068 34.8335C58.3783 34.8335 65.1734 41.6286 65.1734 50.0002Z" fill="#333333" stroke="#CCCCCC" stroke-width="3"/>
</g>
<defs>
<clipPath id="clip0">
<rect width="66.68" height="100" fill="white"/>
</clipPath>
</defs>
</svg>
