<svg width="101" height="100" viewBox="0 0 101 100" fill="none" xmlns="http://www.w3.org/2000/svg">
<g clip-path="url(#clip0)">
<path d="M66.582 0H14.757C13.3142 0 12.1445 1.16964 12.1445 3.43929V98.2143C12.1445 98.8304 13.3142 100 14.757 100H86.3177C87.7606 100 88.9303 98.8304 88.9303 98.2143V23.175C88.9303 21.9321 88.7642 21.5321 88.4713 21.2375L67.6927 0.458929C67.3981 0.166071 66.9981 0 66.582 0Z" fill="#E9E9E0"/>
<path d="M67.5017 0.269531V21.4285H88.6606L67.5017 0.269531Z" fill="#D9D7CA"/>
<path d="M86.3177 100H14.757C13.3142 100 12.1445 98.8305 12.1445 97.3877V69.6431H88.9303V97.3877C88.9303 98.8305 87.7606 100 86.3177 100Z" fill="#EEAF4B"/>
<path d="M47.0034 76.284V90.2983C47.0034 91.1447 46.848 91.8572 46.5391 92.434C46.2284 93.0108 45.8141 93.4751 45.2945 93.8251C44.773 94.1751 44.1748 94.4197 43.4998 94.5572C42.8248 94.6947 42.1266 94.7644 41.4123 94.7644C41.0534 94.7644 40.6337 94.7269 40.1552 94.6537C39.6766 94.5804 39.1784 94.4679 38.6659 94.3126C38.1534 94.1572 37.6605 93.9822 37.1891 93.7876C36.7159 93.5929 36.3177 93.3733 35.9927 93.1287L37.2373 91.1519C37.3998 91.2644 37.632 91.384 37.9337 91.5054C38.2355 91.6269 38.5641 91.7412 38.923 91.8465C39.2802 91.9537 39.6552 92.0447 40.0462 92.1269C40.4373 92.209 40.8034 92.2483 41.1445 92.2483C42.0052 92.2483 42.6945 92.0804 43.207 91.7483C43.7195 91.4162 43.9909 90.8483 44.0248 90.0519V76.2822H47.0034V76.284Z" fill="white"/>
<path d="M61.5802 89.711C61.5802 90.361 61.4463 90.9931 61.1766 91.6038C60.907 92.2146 60.5302 92.7521 60.0409 93.2146C59.5516 93.6771 58.9499 94.0485 58.2338 94.3253C57.5177 94.6021 56.7034 94.7396 55.7927 94.7396C55.4016 94.7396 54.9999 94.7181 54.5838 94.6788C54.1677 94.6396 53.7481 94.5681 53.3266 94.4717C52.9034 94.3735 52.4998 94.2396 52.1177 94.0681C51.7356 93.8967 51.4052 93.6896 51.1284 93.4449L51.6409 91.3449C51.8677 91.4753 52.157 91.6021 52.507 91.7235C52.857 91.8449 53.2177 91.9592 53.5927 92.0646C53.9659 92.1717 54.3409 92.2556 54.7159 92.3217C55.0891 92.386 55.4391 92.4199 55.7659 92.4199C56.7588 92.4199 57.5195 92.1878 58.0481 91.7235C58.5766 91.2592 58.8409 90.5717 58.8409 89.661C58.8409 89.1074 58.6534 88.636 58.2802 88.2449C57.9052 87.8538 57.4373 87.5003 56.8766 87.1824C56.3159 86.8646 55.7088 86.5485 55.057 86.2306C54.4052 85.9128 53.7945 85.5378 53.2266 85.1074C52.657 84.6771 52.1838 84.1681 51.8106 83.5824C51.4356 82.9967 51.2498 82.2646 51.2498 81.386C51.2498 80.5896 51.3963 79.8806 51.6891 79.2628C51.982 78.6449 52.3766 78.1181 52.8731 77.6878C53.3695 77.2574 53.9481 76.9271 54.607 76.6985C55.2659 76.4699 55.9623 76.3574 56.6945 76.3574C57.4427 76.3574 58.1999 76.4271 58.9641 76.5646C59.7284 76.7021 60.3463 76.9271 60.8195 77.236C60.7213 77.4467 60.607 77.6788 60.4784 77.9324C60.3481 78.186 60.2248 78.4199 60.1123 78.6396C59.9981 78.8592 59.8999 79.0431 59.8195 79.1896C59.7374 79.336 59.6891 79.4181 59.6731 79.4342C59.5749 79.386 59.4659 79.3217 59.3427 79.2396C59.2195 79.1574 59.0445 79.0771 58.8177 78.9949C58.5891 78.9128 58.2874 78.8574 57.9141 78.8235C57.5391 78.7896 57.0588 78.7985 56.4731 78.8485C56.1463 78.8824 55.8391 78.9735 55.5445 79.1289C55.2499 79.2842 54.9891 79.4735 54.7623 79.7021C54.5338 79.9306 54.3534 80.186 54.2248 80.4717C54.0945 80.7556 54.0302 81.0306 54.0302 81.2896C54.0302 81.9396 54.2159 82.4646 54.5909 82.8646C54.9641 83.2646 55.4284 83.6128 55.982 83.9146C56.5356 84.2164 57.1356 84.5092 57.7891 84.7931C58.4391 85.0771 59.0463 85.4253 59.6088 85.8306C60.1713 86.236 60.6374 86.7467 61.0124 87.3556C61.3909 87.9663 61.5802 88.7503 61.5802 89.711Z" fill="white"/>
<path d="M35.3587 33.9287V26.7859C35.3587 25.8019 36.1587 25.0001 37.1445 25.0001C38.132 25.0001 38.9302 24.2001 38.9302 23.2144C38.9302 22.2287 38.132 21.4287 37.1445 21.4287C34.1909 21.4287 31.7873 23.8323 31.7873 26.7859V33.9287C31.7873 35.8984 30.1855 37.5001 28.2159 37.5001C27.2284 37.5001 26.4302 38.3001 26.4302 39.2859C26.4302 40.2716 27.2284 41.0716 28.2159 41.0716C30.1855 41.0716 31.7873 42.6734 31.7873 44.643V51.7859C31.7873 54.7394 34.1909 57.143 37.1445 57.143C38.132 57.143 38.9302 56.343 38.9302 55.3573C38.9302 54.3716 38.132 53.5716 37.1445 53.5716C36.1587 53.5716 35.3587 52.7698 35.3587 51.7859V44.643C35.3587 42.5001 34.3909 40.5966 32.8909 39.2859C34.3909 37.9751 35.3587 36.0716 35.3587 33.9287Z" fill="#EEAF4B"/>
<path d="M49.6444 35.7146C51.1237 35.7146 52.323 34.5153 52.323 33.036C52.323 31.5567 51.1237 30.3574 49.6444 30.3574C48.1651 30.3574 46.9658 31.5567 46.9658 33.036C46.9658 34.5153 48.1651 35.7146 49.6444 35.7146Z" fill="#EEAF4B"/>
<path d="M71.0729 37.5001C69.1033 37.5001 67.5015 35.8984 67.5015 33.9287V26.7859C67.5015 23.8323 65.0979 21.4287 62.1444 21.4287C61.1569 21.4287 60.3586 22.2287 60.3586 23.2144C60.3586 24.2001 61.1569 25.0001 62.1444 25.0001C63.1301 25.0001 63.9301 25.8019 63.9301 26.7859V33.9287C63.9301 36.0716 64.8979 37.9751 66.3979 39.2859C64.8979 40.5966 63.9301 42.5001 63.9301 44.643V51.7859C63.9301 52.7698 63.1301 53.5716 62.1444 53.5716C61.1569 53.5716 60.3586 54.3716 60.3586 55.3573C60.3586 56.343 61.1569 57.143 62.1444 57.143C65.0979 57.143 67.5015 54.7394 67.5015 51.7859V44.643C67.5015 42.6734 69.1033 41.0716 71.0729 41.0716C72.0604 41.0716 72.8586 40.2716 72.8586 39.2859C72.8586 38.3001 72.0604 37.5001 71.0729 37.5001Z" fill="#EEAF4B"/>
<path d="M49.6444 42.8574C48.6569 42.8574 47.8586 43.6574 47.8586 44.6431V50.0003C47.8586 50.986 48.6569 51.786 49.6444 51.786C50.6319 51.786 51.4301 50.986 51.4301 50.0003V44.6431C51.4301 43.6574 50.6319 42.8574 49.6444 42.8574Z" fill="#EEAF4B"/>
</g>
<defs>
<clipPath id="clip0">
<rect width="100" height="100" fill="white" transform="translate(0.537354)"/>
</clipPath>
</defs>
</svg>
