<svg width="105" height="100" viewBox="0 0 105 100" fill="none" xmlns="http://www.w3.org/2000/svg">
<g clip-path="url(#clip0)">
<path d="M90.3574 57.4482C86.6865 57.4746 83.5078 58.5941 80.8417 60.261C79.8574 57.7871 78.873 55.6253 78.7091 54.011C78.5246 52.136 78.299 50.9899 78.5246 48.7506C78.7499 46.5107 79.7753 43.3337 79.7753 43.0732C79.7546 42.8389 79.5495 41.693 77.4374 41.667C75.3254 41.641 73.5 42.1878 73.2949 42.891C73.0898 43.5941 72.6796 45.2087 72.413 46.8753C72.0439 49.3232 68.1884 57.9951 65.9941 62.5524C65.2763 60.7816 64.6611 59.2191 64.5378 57.9688C64.3535 56.0941 64.1277 54.948 64.3535 52.7087C64.5791 50.4688 65.6045 47.292 65.6045 47.0316C65.5839 46.7972 65.3789 45.6514 63.2668 45.6253C61.1543 45.5993 59.3293 46.1462 59.1242 46.8493C58.9191 47.5524 58.6935 49.2191 58.2424 50.8337C57.8115 52.4482 52.6845 66.9274 51.3515 70.7035C50.6748 72.6305 50.0803 74.167 49.6494 75.2087C49.2187 76.2503 49.6289 75.2868 49.5879 75.391C49.2187 76.2764 49.0137 76.7712 49.0137 76.7712V76.7975C48.7265 77.4485 48.4189 78.0732 48.2752 78.0732C48.1726 78.0732 47.9676 76.3285 48.3162 73.9329C49.075 68.9066 50.9207 61.0683 50.9004 60.7818C50.9004 60.6516 51.2488 59.2712 49.7107 58.5683C48.2136 57.8652 47.6806 59.0371 47.5574 59.0371C47.4343 59.0371 47.3318 59.4537 47.3318 59.4537C47.3318 59.4537 48.9929 50.6259 44.1531 50.6259C41.1179 50.6259 36.9344 54.8186 34.8631 58.6467C33.5506 59.5581 30.7615 61.485 27.8084 63.5425C26.6805 64.3238 25.5115 65.1571 24.4041 65.9123L24.1787 65.5993C18.3135 57.6566 7.46487 52.0316 7.91604 41.3545C8.08011 37.4743 9.14651 27.2399 28.7522 14.8441C44.8098 4.68783 57.6681 7.47429 59.9033 13.6722C63.082 22.5264 53.0332 38.9847 36.34 41.3545C29.9826 42.266 26.6397 39.141 25.799 37.9691C24.9172 36.7451 24.7942 36.693 24.466 36.9274C23.9328 37.292 24.261 38.3857 24.466 39.0368C24.9582 40.6774 27.009 43.5941 30.4953 45.0524C33.5508 46.3285 41.0158 47.0316 50.0392 42.6045C60.1496 37.6305 68.0451 23.8285 65.7277 12.292C63.3693 0.547206 48.0295 -3.30696 33.5305 3.2295C24.8965 7.13575 15.5449 13.2295 8.81839 21.2243C0.82035 30.7035 -0.451133 38.9847 0.0820698 42.4222C1.94848 54.6878 15.2578 62.6826 20.5899 68.5941C20.3233 68.7761 20.0772 68.9584 19.8516 69.1149C17.1856 70.7813 7.03421 77.5264 4.49124 84.6615C1.62015 92.7345 4.94242 98.542 7.15726 99.3233C14.0069 101.745 21.0205 97.3962 24.8145 90.2347C28.5877 83.0733 28.1367 73.7764 26.3936 69.5316L26.3318 69.3753L28.4236 67.8128C29.7773 66.7972 31.1104 65.8597 32.2791 65.0522C31.623 67.3178 31.1512 70.0001 30.9053 73.9063C30.6182 78.4899 32.0947 84.4272 34.043 86.7709C34.9043 87.7863 35.9297 87.8126 36.5654 87.8126C38.8213 87.8126 39.8467 85.4425 40.9746 82.6042C42.3691 79.1407 43.5996 75.1303 43.5996 75.1303C43.5996 75.1303 42.0615 85.9897 46.2656 85.9897C47.8037 85.9897 49.3418 83.4636 50.039 82.1615V82.1876C50.039 82.1876 50.0801 82.1095 50.1621 81.9272C50.2481 81.7656 50.3302 81.6007 50.4082 81.4326V81.3805C51.0234 80.0264 52.3974 76.9274 54.4482 71.7972C57.0935 65.1826 59.6367 56.9014 59.6367 56.9014C59.6367 56.9014 59.8828 58.9326 60.6416 62.266C61.0925 64.2454 62.0769 66.4066 62.8357 68.516C62.2205 69.6097 61.8513 70.235 61.8513 70.235L61.8718 70.261C61.3799 71.0943 60.8259 71.98 60.2519 72.8652C58.1601 76.0423 55.6582 79.6623 55.33 80.704C54.9404 81.9277 55.0224 82.8391 55.7812 83.5686C56.3349 84.0894 57.3193 84.1933 58.3652 84.0894C60.2519 83.9329 61.5644 83.3342 62.2207 82.9694C63.2461 82.5006 64.415 81.7975 65.5429 80.7558C67.5937 78.829 68.8447 76.0946 68.7216 72.4488C68.6601 70.4436 68.1474 68.4644 67.5117 66.5894C67.6963 66.2509 67.881 65.912 68.0654 65.5477C71.3056 59.5318 73.8076 52.9175 73.8076 52.9175C73.8076 52.9175 74.0537 54.9488 74.8124 58.2821C75.2019 59.9748 75.9814 61.824 76.6787 63.6469C73.6435 66.798 71.7363 70.4438 71.08 72.8397C69.8701 77.2667 70.8134 79.2719 72.5976 79.7407C73.3972 79.949 74.5459 79.4803 75.407 79.0115C76.4734 78.5688 77.7654 77.8134 78.955 76.6938C81.0058 74.7667 82.9746 72.0845 82.872 68.4647C82.8105 66.798 82.4619 65.1574 81.9902 63.5949C84.5742 62.2407 87.9167 61.4594 92.162 62.1105C101.288 63.4647 103.093 70.7042 102.744 73.7251C102.396 76.7462 100.488 78.4126 99.8525 78.9334C99.2167 79.4282 99.0116 79.6108 99.0732 79.9751C99.1552 80.5222 99.4423 80.4959 99.996 80.392C100.755 80.2355 104.795 77.918 104.959 72.3454C105.205 65.1829 99.8525 57.3704 90.3574 57.4482ZM19.9746 87.5785C16.96 91.7712 12.7149 93.3597 10.9102 92.0055C8.96194 90.5732 9.72052 84.4014 13.4326 79.9483C15.6885 77.2399 18.6211 74.7399 20.5488 73.2035C20.9795 72.8649 21.6358 72.3704 22.4151 71.7712C22.5381 71.6673 22.6201 71.6149 22.6201 71.6149C22.7637 71.5108 22.9277 71.3805 23.0918 71.2503C24.4658 77.6045 23.1533 83.1774 19.9746 87.5785ZM42.0205 68.542C40.9746 71.7972 38.7598 80.1566 37.4268 79.6878C36.2781 79.2972 35.5811 72.9691 37.201 66.7191C38.0213 63.5678 39.7644 59.818 40.7898 58.3594C42.4512 56.0157 44.2556 55.2344 44.707 56.198C45.2402 57.4482 42.6767 66.5108 42.0205 68.542ZM60.2109 79.5837C59.7597 79.8704 59.3496 80.0785 59.165 79.9225C59.0215 79.8183 59.3494 79.4277 59.3494 79.4277C59.3494 79.4277 61.6257 76.3287 62.5281 74.8964C63.0408 74.0634 63.656 73.0998 64.3123 72.0058V72.3183C64.3125 76.068 61.4824 78.568 60.2109 79.5837ZM74.238 75.5212C73.9099 75.2087 73.9511 74.2451 75.0583 71.2243C75.4892 70.0264 76.4734 68.0212 78.1755 66.1201C78.3806 66.9014 78.5039 67.6563 78.4831 68.3597C78.4628 73.0472 75.8378 74.792 74.238 75.5212Z" fill="#CF649A"/>
</g>
<defs>
<clipPath id="clip0">
<rect width="105" height="100" fill="white"/>
</clipPath>
</defs>
</svg>
