<svg width="122" height="100" viewBox="0 0 122 100" fill="none" xmlns="http://www.w3.org/2000/svg">
<g clip-path="url(#clip0)">
<path d="M0.5 15.4208H28.7311V23.7241H0.5V15.4208ZM0.5 0H28.7311V8.3033H0.5V0ZM51.1509 30.7226H0.5V39.0259H49.2528C54.5906 39.0259 67.0453 39.1443 71.6717 46.6175V41.9915C69.4179 34.6368 62.7755 30.7226 51.1505 30.7226H51.1509ZM51.2689 46.1429H0.5V54.4462H49.2528C61.1146 54.4462 68.5877 54.9208 71.6717 56.5816V52.9042C69.299 47.092 59.3354 46.1429 51.2693 46.1429H51.2689ZM51.1509 85.2873H0.5V76.984H49.2528C54.5906 76.984 67.0453 76.8656 71.6717 69.3925V74.0184C69.4179 81.3731 62.7755 85.2873 51.1505 85.2873H51.1509ZM51.2689 69.867H0.5V61.5637H49.2528C61.1146 61.5637 68.5877 61.0892 71.6717 59.4283V63.1057C69.299 68.9179 59.3354 69.867 51.2693 69.867H51.2689ZM84.008 99.6406H121.255V94.5396H85.0755C81.8726 94.5396 74.2816 94.4212 71.5533 90.0321V92.8792C72.858 97.2679 76.891 99.6406 84.008 99.6406ZM83.8896 90.2693H121.136V85.1689H85.0755C77.8396 85.1689 73.3321 84.9316 71.5528 83.8642V86.1179C72.9759 89.6764 79.0255 90.2693 83.8891 90.2693H83.8896Z" fill="white"/>
</g>
<defs>
<clipPath id="clip0">
<rect width="120.773" height="100" fill="white" transform="translate(0.5)"/>
</clipPath>
</defs>
</svg>
